<svg xmlns="http://www.w3.org/2000/svg" viewBox="0 0 64 64" id="peace">
  <path fill="#f28dbc" d="M55 20.5C55 37.221 32 46 32 46S9 36.921 9 20.5a12.5 12.5 0 0 1 23-6.78 12.5 12.5 0 0 1 23 6.78Z"></path>
  <path fill="#ffcbbe" d="M58 13a3 3 0 0 0-3 3v10.26l.022.033c-.05-.04-.09-.086-.142-.123a2.936 2.936 0 0 0-1.71-.54 3 3 0 0 0-2.47 1.28L42 40v7l-1 9h13v-8l7-9V16a3 3 0 0 0-3-3zm-1.978 14.766-.008-.03.014.02zM23 56l-1-9v-7l-8.7-13.09a3 3 0 0 0-2.47-1.28 2.936 2.936 0 0 0-1.71.54c-.053.037-.093.083-.143.123L9 26.259V16a3 3 0 1 0-6 0v23l7 9v8zM7.987 27.736l-.008.03-.006-.01z"></path>
  <path d="M58 12a4 4 0 0 0-2.83 1.17 4.209 4.209 0 0 0-.73 1.05A13.486 13.486 0 0 0 32 12.02a13.486 13.486 0 0 0-22.44 2.2 3.962 3.962 0 0 0-.73-1.05A4 4 0 0 0 2 16v23a.961.961 0 0 0 .21.61L9 48.34V56a.99.99 0 0 0 1 1h13a1.006 1.006 0 0 0 .75-.33.979.979 0 0 0 .24-.78L23 46.94v-4.58a54.431 54.431 0 0 0 8.63 4.57.971.971 0 0 0 .37.07.922.922 0 0 0 .36-.07A52.083 52.083 0 0 0 41 42.45v4.49l-.99 8.95a1.024 1.024 0 0 0 .25.78A1 1 0 0 0 41 57h13a.99.99 0 0 0 1-1v-7.66l6.79-8.73A.961.961 0 0 0 62 39V16a4 4 0 0 0-4-4ZM11 55v-7a.961.961 0 0 0-.21-.61L4 38.66V16a2.006 2.006 0 0 1 2-2 2.015 2.015 0 0 1 2 2v9.82a4.008 4.008 0 0 0-.44 5.1l5.62 8.02 1.64-1.14-5.62-8.02a2.018 2.018 0 0 1 .5-2.8 2.077 2.077 0 0 1 2.77.48L21 40.3V47a.41.41 0 0 0 .01.11l.87 7.89Zm30-15v.06a54.864 54.864 0 0 1-8.99 4.86 55.66 55.66 0 0 1-9.02-4.96.932.932 0 0 0-.16-.51l-8.71-13.12a4.038 4.038 0 0 0-3.29-1.7 2.458 2.458 0 0 0-.28.02 16.181 16.181 0 0 1-.55-4.14v-.02a11.5 11.5 0 0 1 21.16-6.23 1 1 0 0 0 1.68 0A11.5 11.5 0 0 1 54 20.5a16.63 16.63 0 0 1-.53 4.15c-.1-.01-.2-.02-.3-.02a4.02 4.02 0 0 0-3.3 1.73l-8.7 13.09A.967.967 0 0 0 41 40Zm19-1.34-6.79 8.73A1.023 1.023 0 0 0 53 48v7H42.12l.88-7.89V40.3l8.52-12.82a2.054 2.054 0 0 1 2.79-.49 2.011 2.011 0 0 1 .49 2.79l-5.62 8.02 1.64 1.14 5.62-8.02a4.006 4.006 0 0 0-.44-5.1V16a2.015 2.015 0 0 1 2-2 2.006 2.006 0 0 1 2 2Z"></path>
</svg>